<?xml version="1.0" encoding="utf-8"?>
<!-- Generator: Adobe Illustrator 27.2.0, SVG Export Plug-In . SVG Version: 6.00 Build 0)  -->
<svg version="1.1" id="Layer_1" xmlns="http://www.w3.org/2000/svg" xmlns:xlink="http://www.w3.org/1999/xlink" x="0px" y="0px"
	 viewBox="0 0 1024 1024" style="enable-background:new 0 0 1024 1024;" xml:space="preserve">
<style type="text/css">
	.st0{fill:#999999;}
</style>
<path class="st0" d="M980.4,539.6H109.5l256.6,256.6c10.7,10.7,10.7,28,0,38.7s-28,10.7-38.7,0L25.3,532.8c-0.5-0.5-1.2-0.6-1.8-1.1
	c-0.8-0.8-0.8-2-1.6-3c-2.4-2.9-4-6-5-9.5c-0.4-1.3-0.6-2.5-0.8-3.8c-1.1-8.2,1-16.7,7.3-23c0.5-0.5,1.3-0.7,1.8-1.2l302-302
	c10.7-10.7,28-10.7,38.7,0s10.7,28,0,38.7L109.5,484.4h870.9c15.2,0,27.6,12.4,27.6,27.6S995.7,539.6,980.4,539.6z"/>
</svg>
